<?xml version="1.0" encoding="UTF-8" standalone="no"?>
<!-- Generator: Adobe Illustrator 17.0.2, SVG Export Plug-In . SVG Version: 6.00 Build 0)  -->

<svg
   version="1.1"
   id="Layer_1"
   x="0px"
   y="0px"
   width="166.16176"
   height="125.9903"
   viewBox="0 0 166.16176 125.99031"
   enable-background="new 0 0 165.552 144.277"
   xml:space="preserve"
   xmlns="http://www.w3.org/2000/svg"
   xmlns:svg="http://www.w3.org/2000/svg"><defs
   id="defs10" />
<path
   id="path1"
   style="display:inline;fill:#ffffff;stroke-width:1.18301"
   d="M 45.691406,6.9378193e-5 C 38.120722,0.0138278 31.719251,2.1282653 25.759766,4.3906951 19.049703,6.9380698 18.04027,8.4079472 14.882813,14.252023 13.496324,16.819157 12.992609,20.895012 10.208984,24.08796 8.6178343,25.914529 3.5398714,33.424772 0.0097656,34.701242 v -0.03516 L -2.186783e-8,34.701242 V 88.24031 L 0.0097656,88.314484 V 87.980508 C 0.23808678,87.282532 0.48021772,86.612309 0.75585936,86.013705 2.1210545,83.10468 5.2885074,80.405107 7.0488282,77.418004 c 0.9570561,-1.627824 2.0494996,-3.22142 2.6835937,-4.929689 0.5453681,-1.471666 0.8136771,-3.66689 1.6015621,-4.943359 0.965337,-1.565124 2.477186,-2.098398 4.029297,-2.351563 2.431088,-0.401041 4.499238,3.493925 7.609375,4.927734 1.326156,0.609251 7.427281,2.771215 9.259765,3.214844 3.017862,0.721636 6.367643,1.324646 9.431642,1.943361 1.640837,0.331244 3.209097,0.523779 4.898437,0.695315 1.515437,0.151426 7.193567,0.339489 7.544922,0.749994 -2.885365,1.471666 -4.578472,5.604126 -5.66211,8.527347 -1.129776,3.046254 -1.918008,6.434055 -3.283203,9.41406 -1.513071,3.292321 -4.685204,4.663502 -4.30664,8.500012 0.14551,1.53081 0.423499,3.1357 0.167969,4.82031 -0.272093,1.77333 -0.988059,3.15787 -1.509767,4.89453 -0.669584,2.26546 -1.467231,9.5817 -2.499999,11.73242 l 6.314453,-0.79102 0.01171,-0.004 c 0.689696,-1.63966 1.323286,-8.56176 1.546875,-9.2207 1.180645,-3.47096 2.74841,-6.32747 5.158204,-9.01172 2.34946,-2.61564 2.227316,-5.985764 3.599609,-9.033201 1.485862,-3.312432 3.48342,-5.960543 5.36914,-9.074229 3.408256,-5.629951 5.654449,-12.737956 12.900392,-14.183589 0.77369,-0.159706 5.211156,3.039126 7.179687,4.941408 2.25482,2.167276 4.718088,4.677733 6.199218,7.666019 2.86762,5.792024 5.298368,14.181832 6.218751,18.808592 0.528806,2.65704 0.951053,2.81534 2.748047,4.91992 0.826925,0.96415 2.476529,3.97778 3.019531,5.13476 0.570211,1.23507 1.438027,4.04548 2.128906,5.48047 0.406955,0.85413 1.460745,3.4775 2.228515,5.74415 l 5.90235,-0.1836 v 0.002 0.002 l 0.002,0.002 0.002,0.004 0.002,0.002 h 0.002 l 0.002,0.002 0.002,0.002 c 0.002,0.001 0.005,0.001 0.006,0.002 0.0318,0.0106 0.0945,-0.008 0.125,0.004 10e-4,8.7e-4 0.007,0.005 0.008,0.006 v 0.002 0.002 h 0.002 v 0.002 h 0.002 0.002 l 0.004,-0.002 h 0.002 c -0.0248,-0.045 -0.049,-0.0979 -0.0703,-0.14648 -2.93979,-5.89968 -4.81781,-12.72523 -5.78907,-19.25781 -0.24725,-1.68461 0.23212,-3.36286 -0.27539,-4.94336 -0.43416,-1.37939 -1.42978,-1.505463 -2.083982,-2.626958 -1.723648,-2.942149 -3.507437,-6.753196 -3.671876,-10.355466 -0.150242,-3.235535 -1.339881,-6.158094 -1.501953,-9.365238 -0.07808,-1.547378 0.104424,-3.143769 0.04882,-4.675778 -0.02958,-0.745297 -0.07088,-1.391992 -0.218751,-2.201171 -0.03667,-0.199929 -0.170905,-1.023457 -0.232421,-1.353517 L 94.30948,69.91085 c -0.0027,-0.0053 -0.005,-0.01437 -0.0059,-0.01953 v -0.002 c 1.91e-4,-0.001 0.0017,-0.0047 0.002,-0.0059 2.53e-4,-0.001 -5.9e-5,-0.0033 0,-0.0039 v -0.002 c 0.07739,-0.301834 3.474848,-0.196302 4.513672,-0.189454 1.827748,0.02248 3.548078,0.115593 5.371098,0.203126 3.72412,0.18455 7.11702,0.139643 10.74414,-0.419922 8.08233,-1.248077 11.79811,-4.547629 13.69921,-5.919922 7.42103,-5.35076 10.82032,-14.101562 10.82032,-14.101562 1.22442,-2.732756 1.21864,-7.606407 3.84375,-9.789063 3.09357,-2.577781 8.28844,-2.392923 11.83984,-3.974609 2.07737,-0.9192 3.57378,-1.424455 5.69727,-0.984375 1.57577,0.328877 4.41455,2.154199 5.0664,-0.408203 -0.52644,-0.339524 -0.73211,-0.960431 -1.01366,-1.304688 2.92795,-0.289837 0.0547,-7.082539 -1.10353,-8.439453 -1.78871,-2.09393 -4.77401,-3.05418 -7.94921,-3.896484 -3.77144,-0.999645 -7.19274,-2.151872 -10.74414,-1.455078 -6.20135,1.213769 -5.73826,-2.335938 -9.39258,-2.335938 -4.38542,0 -12.18653,0.216896 -13.53516,4.480469 -0.62818,1.991008 -1.2749,2.072342 -2.36328,3.59961 -0.93103,1.30841 0.1626,2.46407 -0.30469,3.95703 -0.48266,1.534365 -1.19225,6.938499 -1.93164,8.824219 -1.25044,3.190581 -2.7405,7.175781 -5.49219,7.175781 -3.85779,0.461374 -6.89046,0.608348 -10.01953,-0.527344 -1.88335,-0.68378 -5.038031,-1.754355 -6.599605,-2.412109 C 88.249612,38.93021 87.065066,35.612659 87.065066,35.612659 86.29256,34.335008 84.25466,32.27507 83.4928,29.587268 82.655228,26.627374 81.243113,24.158798 80.670535,22.618518 80.077846,21.022634 78.662655,18.466017 77.549441,15.702502 76.123913,12.164116 74.115214,9.5249985 72.647097,8.214222 62.002443,2.0773946 53.262703,-0.01047125 45.692019,0.00328362 Z M 43.197266,11.568429 h 2.710938 l 14.943358,42.402344 c 1.459727,4.170649 2.642245,5.282853 5.492188,5.421875 v 2.015625 H 50.773438 v -2.015625 h 0.972655 c 2.780433,0 3.753907,-0.487539 3.753907,-1.947265 0,-0.695109 -0.208736,-1.459045 -0.695313,-2.988282 L 47.853515,35.06257 39.859374,53.691476 c -0.625596,1.390216 -0.972655,2.851417 -0.972655,3.685546 0,1.320706 1.04278,2.015626 3.058593,2.015626 h 1.667969 v 2.015625 H 30.197266 v -2.015625 c 3.127986,-0.278044 3.476476,-0.556222 5.839844,-5.769531 L 46.533203,31.378976 43.335937,21.92585 C 41.8067,17.060094 41.458193,16.85223 34.785156,16.226632 l -1.390625,-0.140625 v -2.154296 c 4.657224,-0.625598 6.257684,-0.973066 9.802735,-2.363282 z" />
</svg>
